<svg width="1650" height="990" xmlns="http://www.w3.org/2000/svg" xmlns:xlink="http://www.w3.org/1999/xlink" overflow="hidden"><defs><clipPath id="clip0"><rect x="2066" y="7516" width="1650" height="990"/></clipPath><clipPath id="clip1"><rect x="2065" y="7516" width="1650" height="990"/></clipPath><clipPath id="clip2"><rect x="2217" y="7764" width="1451" height="463"/></clipPath><linearGradient x1="2306" y1="8062" x2="2306" y2="8224" gradientUnits="userSpaceOnUse" spreadMethod="reflect" id="fill3"><stop offset="0" stop-color="#6083CB"/><stop offset="0.5" stop-color="#3E70CA"/><stop offset="1" stop-color="#2E61BA"/></linearGradient><clipPath id="clip4"><rect x="2217" y="7764" width="1451" height="463"/></clipPath><linearGradient x1="3030" y1="8183" x2="3030" y2="8224" gradientUnits="userSpaceOnUse" spreadMethod="reflect" id="fill5"><stop offset="0" stop-color="#6083CB"/><stop offset="0.5" stop-color="#3E70CA"/><stop offset="1" stop-color="#2E61BA"/></linearGradient><clipPath id="clip6"><rect x="2217" y="7764" width="1451" height="463"/></clipPath><linearGradient x1="2415.5" y1="7838" x2="2415.5" y2="8224" gradientUnits="userSpaceOnUse" spreadMethod="reflect" id="fill7"><stop offset="0" stop-color="#F18C55"/><stop offset="0.5" stop-color="#F67B28"/><stop offset="1" stop-color="#E56B17"/></linearGradient><clipPath id="clip8"><rect x="2217" y="7764" width="1451" height="463"/></clipPath><linearGradient x1="3139" y1="7880" x2="3139" y2="8224" gradientUnits="userSpaceOnUse" spreadMethod="reflect" id="fill9"><stop offset="0" stop-color="#F18C55"/><stop offset="0.5" stop-color="#F67B28"/><stop offset="1" stop-color="#E56B17"/></linearGradient><clipPath id="clip10"><rect x="2217" y="7764" width="1451" height="463"/></clipPath><linearGradient x1="2525" y1="8007" x2="2525" y2="8224" gradientUnits="userSpaceOnUse" spreadMethod="reflect" id="fill11"><stop offset="0" stop-color="#AFAFAF"/><stop offset="0.5" stop-color="#A5A5A5"/><stop offset="1" stop-color="#929292"/></linearGradient><clipPath id="clip12"><rect x="2217" y="7764" width="1451" height="463"/></clipPath><linearGradient x1="3249" y1="7943" x2="3249" y2="8224" gradientUnits="userSpaceOnUse" spreadMethod="reflect" id="fill13"><stop offset="0" stop-color="#AFAFAF"/><stop offset="0.5" stop-color="#A5A5A5"/><stop offset="1" stop-color="#929292"/></linearGradient><clipPath id="clip14"><rect x="2217" y="7764" width="1451" height="463"/></clipPath><linearGradient x1="2634" y1="8197" x2="2634" y2="8224" gradientUnits="userSpaceOnUse" spreadMethod="reflect" id="fill15"><stop offset="0" stop-color="#FFC746"/><stop offset="0.5" stop-color="#FFC600"/><stop offset="1" stop-color="#E5B600"/></linearGradient><clipPath id="clip16"><rect x="2217" y="7764" width="1451" height="463"/></clipPath><linearGradient x1="3358" y1="8112" x2="3358" y2="8224" gradientUnits="userSpaceOnUse" spreadMethod="reflect" id="fill17"><stop offset="0" stop-color="#FFC746"/><stop offset="0.5" stop-color="#FFC600"/><stop offset="1" stop-color="#E5B600"/></linearGradient><clipPath id="clip18"><rect x="2217" y="7764" width="1451" height="463"/></clipPath><linearGradient x1="2744" y1="8222" x2="2744" y2="8224" gradientUnits="userSpaceOnUse" spreadMethod="reflect" id="fill19"><stop offset="0" stop-color="#71A6DB"/><stop offset="0.5" stop-color="#559BDB"/><stop offset="1" stop-color="#438AC9"/></linearGradient><clipPath id="clip20"><rect x="2217" y="7764" width="1451" height="463"/></clipPath><linearGradient x1="3468" y1="8209" x2="3468" y2="8224" gradientUnits="userSpaceOnUse" spreadMethod="reflect" id="fill21"><stop offset="0" stop-color="#71A6DB"/><stop offset="0.5" stop-color="#559BDB"/><stop offset="1" stop-color="#438AC9"/></linearGradient><clipPath id="clip22"><rect x="2065" y="7516" width="1650" height="990"/></clipPath><clipPath id="clip23"><rect x="2065" y="7516" width="1650" height="990"/></clipPath><clipPath id="clip24"><rect x="2065" y="7516" width="1650" height="990"/></clipPath><clipPath id="clip25"><rect x="2065" y="7516" width="1650" height="990"/></clipPath><clipPath id="clip26"><rect x="2065" y="7516" width="1650" height="990"/></clipPath><clipPath id="clip27"><rect x="2065" y="7516" width="1650" height="990"/></clipPath><clipPath id="clip28"><rect x="2065" y="7516" width="1650" height="990"/></clipPath><clipPath id="clip29"><rect x="2065" y="7516" width="1650" height="990"/></clipPath><clipPath id="clip30"><rect x="2065" y="7516" width="1650" height="990"/></clipPath><clipPath id="clip31"><rect x="2065" y="7516" width="1650" height="990"/></clipPath><clipPath id="clip32"><rect x="2065" y="7516" width="1650" height="990"/></clipPath><clipPath id="clip33"><rect x="2065" y="7516" width="1650" height="990"/></clipPath><clipPath id="clip34"><rect x="2065" y="7516" width="1650" height="990"/></clipPath><clipPath id="clip35"><rect x="2065" y="7516" width="1650" height="990"/></clipPath><clipPath id="clip36"><rect x="2065" y="7516" width="1650" height="990"/></clipPath><clipPath id="clip37"><rect x="2065" y="7516" width="1650" height="990"/></clipPath><clipPath id="clip38"><rect x="2065" y="7516" width="1650" height="990"/></clipPath><clipPath id="clip39"><rect x="2065" y="7516" width="1650" height="990"/></clipPath><clipPath id="clip40"><rect x="2065" y="7516" width="1650" height="990"/></clipPath><clipPath id="clip41"><rect x="2065" y="7516" width="1650" height="990"/></clipPath><clipPath id="clip42"><rect x="2065" y="7516" width="1650" height="990"/></clipPath><clipPath id="clip43"><rect x="2065" y="7516" width="1650" height="990"/></clipPath><clipPath id="clip44"><rect x="2065" y="7516" width="1650" height="990"/></clipPath><clipPath id="clip45"><rect x="2065" y="7516" width="1650" height="990"/></clipPath><clipPath id="clip46"><rect x="2065" y="7516" width="1650" height="990"/></clipPath><clipPath id="clip47"><rect x="2065" y="7516" width="1650" height="990"/></clipPath><clipPath id="clip48"><rect x="2065" y="7516" width="1650" height="990"/></clipPath><clipPath id="clip49"><rect x="2065" y="7516" width="1650" height="990"/></clipPath><linearGradient x1="2350.5" y1="8358" x2="2350.5" y2="8381" gradientUnits="userSpaceOnUse" spreadMethod="reflect" id="fill50"><stop offset="0" stop-color="#6083CB"/><stop offset="0.5" stop-color="#3E70CA"/><stop offset="1" stop-color="#2E61BA"/></linearGradient><clipPath id="clip51"><rect x="2065" y="7516" width="1650" height="990"/></clipPath><clipPath id="clip52"><rect x="2065" y="7516" width="1650" height="990"/></clipPath><linearGradient x1="2728.5" y1="8358" x2="2728.5" y2="8381" gradientUnits="userSpaceOnUse" spreadMethod="reflect" id="fill53"><stop offset="0" stop-color="#F18C55"/><stop offset="0.5" stop-color="#F67B28"/><stop offset="1" stop-color="#E56B17"/></linearGradient><clipPath id="clip54"><rect x="2065" y="7516" width="1650" height="990"/></clipPath><clipPath id="clip55"><rect x="2065" y="7516" width="1650" height="990"/></clipPath><linearGradient x1="3106" y1="8358" x2="3106" y2="8381" gradientUnits="userSpaceOnUse" spreadMethod="reflect" id="fill56"><stop offset="0" stop-color="#AFAFAF"/><stop offset="0.5" stop-color="#A5A5A5"/><stop offset="1" stop-color="#929292"/></linearGradient><clipPath id="clip57"><rect x="2065" y="7516" width="1650" height="990"/></clipPath><clipPath id="clip58"><rect x="2065" y="7516" width="1650" height="990"/></clipPath><linearGradient x1="2350.5" y1="8435" x2="2350.5" y2="8458" gradientUnits="userSpaceOnUse" spreadMethod="reflect" id="fill59"><stop offset="0" stop-color="#FFC746"/><stop offset="0.5" stop-color="#FFC600"/><stop offset="1" stop-color="#E5B600"/></linearGradient><clipPath id="clip60"><rect x="2065" y="7516" width="1650" height="990"/></clipPath><clipPath id="clip61"><rect x="2065" y="7516" width="1650" height="990"/></clipPath><linearGradient x1="2728.5" y1="8435" x2="2728.5" y2="8458" gradientUnits="userSpaceOnUse" spreadMethod="reflect" id="fill62"><stop offset="0" stop-color="#71A6DB"/><stop offset="0.5" stop-color="#559BDB"/><stop offset="1" stop-color="#438AC9"/></linearGradient><clipPath id="clip63"><rect x="2065" y="7516" width="1650" height="990"/></clipPath><clipPath id="clip64"><rect x="2065" y="7516" width="1650" height="990"/></clipPath><linearGradient x1="3106" y1="8435" x2="3106" y2="8458" gradientUnits="userSpaceOnUse" spreadMethod="reflect" id="fill65"><stop offset="0" stop-color="#81B861"/><stop offset="0.5" stop-color="#6FB242"/><stop offset="1" stop-color="#61A235"/></linearGradient><clipPath id="clip66"><rect x="2065" y="7516" width="1650" height="990"/></clipPath></defs><g clip-path="url(#clip0)" transform="translate(-2066 -7516)"><g clip-path="url(#clip1)"><path d="M2217.5 8158.77 3665.5 8158.77M2217.5 8092.77 3665.5 8092.77M2217.5 8027.76 3665.5 8027.76M2217.5 7961.76 3665.5 7961.76M2217.5 7895.76 3665.5 7895.76M2217.5 7829.76 3665.5 7829.76M2217.5 7764.5 3665.5 7764.5" stroke="#E0E5EB" stroke-width="3.4375" stroke-linejoin="round" stroke-miterlimit="10" fill="none"/></g><g clip-path="url(#clip2)"><rect x="2262" y="8062" width="88" height="162" fill="url(#fill3)"/></g><g clip-path="url(#clip4)"><rect x="2986" y="8183" width="88" height="41" fill="url(#fill5)"/></g><g clip-path="url(#clip6)"><rect x="2371" y="7838" width="89" height="386" fill="url(#fill7)"/></g><g clip-path="url(#clip8)"><rect x="3095" y="7880" width="88" height="344" fill="url(#fill9)"/></g><g clip-path="url(#clip10)"><rect x="2481" y="8007" width="88" height="217" fill="url(#fill11)"/></g><g clip-path="url(#clip12)"><rect x="3205" y="7943" width="88" height="281" fill="url(#fill13)"/></g><g clip-path="url(#clip14)"><rect x="2590" y="8197" width="88" height="27" fill="url(#fill15)"/></g><g clip-path="url(#clip16)"><rect x="3314" y="8112" width="88" height="112" fill="url(#fill17)"/></g><g clip-path="url(#clip18)"><rect x="2700" y="8222" width="88" height="2" fill="url(#fill19)"/></g><g clip-path="url(#clip20)"><rect x="3424" y="8209" width="88" height="15" fill="url(#fill21)"/></g><g clip-path="url(#clip22)"><path d="M2217.5 8224.5 3665.5 8224.5" stroke="#E0E5EB" stroke-width="3.4375" stroke-linejoin="round" stroke-miterlimit="10" fill="none" fill-rule="evenodd"/></g><g clip-path="url(#clip23)"><text fill="#44546A" font-family="Calibri,Calibri_MSFontService,sans-serif" font-weight="400" font-size="41" transform="matrix(1 0 0 1 2274.53 8030)">493</text></g><g clip-path="url(#clip24)"><text fill="#44546A" font-family="Calibri,Calibri_MSFontService,sans-serif" font-weight="400" font-size="41" transform="matrix(1 0 0 1 2998.5 8151)">126</text></g><g clip-path="url(#clip25)"><text fill="#44546A" font-family="Calibri,Calibri_MSFontService,sans-serif" font-weight="400" font-size="41" transform="matrix(1 0 0 1 2373.56 7806)">1177</text></g><g clip-path="url(#clip26)"><text fill="#44546A" font-family="Calibri,Calibri_MSFontService,sans-serif" font-weight="400" font-size="41" transform="matrix(1 0 0 1 3097.52 7848)">1048</text></g><g clip-path="url(#clip27)"><text fill="#44546A" font-family="Calibri,Calibri_MSFontService,sans-serif" font-weight="400" font-size="41" transform="matrix(1 0 0 1 2493.49 7975)">661</text></g><g clip-path="url(#clip28)"><text fill="#44546A" font-family="Calibri,Calibri_MSFontService,sans-serif" font-weight="400" font-size="41" transform="matrix(1 0 0 1 3217.45 7911)">858</text></g><g clip-path="url(#clip29)"><text fill="#44546A" font-family="Calibri,Calibri_MSFontService,sans-serif" font-weight="400" font-size="41" transform="matrix(1 0 0 1 2613.42 8165)">83</text></g><g clip-path="url(#clip30)"><text fill="#44546A" font-family="Calibri,Calibri_MSFontService,sans-serif" font-weight="400" font-size="41" transform="matrix(1 0 0 1 3326.93 8080)">343</text></g><g clip-path="url(#clip31)"><text fill="#44546A" font-family="Calibri,Calibri_MSFontService,sans-serif" font-weight="400" font-size="41" transform="matrix(1 0 0 1 2733.34 8190)">8</text></g><g clip-path="url(#clip32)"><text fill="#44546A" font-family="Calibri,Calibri_MSFontService,sans-serif" font-weight="400" font-size="41" transform="matrix(1 0 0 1 3446.86 8177)">47</text></g><g clip-path="url(#clip33)"><text fill="#44546A" font-family="Calibri,Calibri_MSFontService,sans-serif" font-weight="400" font-size="41" transform="matrix(1 0 0 1 2842.82 8192)">0</text></g><g clip-path="url(#clip34)"><text fill="#44546A" font-family="Calibri,Calibri_MSFontService,sans-serif" font-weight="400" font-size="41" transform="matrix(1 0 0 1 3566.78 8192)">0</text></g><g clip-path="url(#clip35)"><text fill="#44546A" font-family="Calibri,Calibri_MSFontService,sans-serif" font-weight="400" font-size="41" transform="matrix(1 0 0 1 2158.43 8236)">0</text></g><g clip-path="url(#clip36)"><text fill="#44546A" font-family="Calibri,Calibri_MSFontService,sans-serif" font-weight="400" font-size="41" transform="matrix(1 0 0 1 2116.63 8170)">200</text></g><g clip-path="url(#clip37)"><text fill="#44546A" font-family="Calibri,Calibri_MSFontService,sans-serif" font-weight="400" font-size="41" transform="matrix(1 0 0 1 2116.63 8105)">400</text></g><g clip-path="url(#clip38)"><text fill="#44546A" font-family="Calibri,Calibri_MSFontService,sans-serif" font-weight="400" font-size="41" transform="matrix(1 0 0 1 2116.63 8039)">600</text></g><g clip-path="url(#clip39)"><text fill="#44546A" font-family="Calibri,Calibri_MSFontService,sans-serif" font-weight="400" font-size="41" transform="matrix(1 0 0 1 2116.63 7973)">800</text></g><g clip-path="url(#clip40)"><text fill="#44546A" font-family="Calibri,Calibri_MSFontService,sans-serif" font-weight="400" font-size="41" transform="matrix(1 0 0 1 2095.73 7907)">1000</text></g><g clip-path="url(#clip41)"><text fill="#44546A" font-family="Calibri,Calibri_MSFontService,sans-serif" font-weight="400" font-size="41" transform="matrix(1 0 0 1 2095.73 7842)">1200</text></g><g clip-path="url(#clip42)"><text fill="#44546A" font-family="Calibri,Calibri_MSFontService,sans-serif" font-weight="400" font-size="41" transform="matrix(1 0 0 1 2095.73 7776)">1400</text></g><g clip-path="url(#clip43)"><text fill="#44546A" font-family="Calibri,Calibri_MSFontService,sans-serif" font-weight="400" font-size="41" transform="matrix(1 0 0 1 2529.63 8290)">Davor</text></g><g clip-path="url(#clip44)"><text fill="#44546A" font-family="Calibri,Calibri_MSFontService,sans-serif" font-weight="400" font-size="41" transform="matrix(1 0 0 1 3240.7 8290)">Danach</text></g><g clip-path="url(#clip45)"><text fill="#44546A" font-family="Calibri,Calibri_MSFontService,sans-serif" font-weight="700" font-size="64" transform="matrix(1 0 0 1 2489.08 7611)">ERMITTELTE COOKIE</text></g><g clip-path="url(#clip46)"><text fill="#44546A" font-family="Calibri,Calibri_MSFontService,sans-serif" font-weight="700" font-size="64" transform="matrix(1 0 0 1 3029.07 7611)">-</text></g><g clip-path="url(#clip47)"><text fill="#44546A" font-family="Calibri,Calibri_MSFontService,sans-serif" font-weight="700" font-size="64" transform="matrix(1 0 0 1 3048.71 7611)">MENGEN</text></g><g clip-path="url(#clip48)"><text fill="#44546A" font-family="Calibri,Calibri_MSFontService,sans-serif" font-weight="700" font-size="64" transform="matrix(1 0 0 1 2665.47 7689)">DAVOR/DANACH </text></g><g clip-path="url(#clip49)"><rect x="2339" y="8358" width="23" height="23" fill="url(#fill50)"/></g><g clip-path="url(#clip51)"><text fill="#44546A" font-family="Calibri,Calibri_MSFontService,sans-serif" font-weight="400" font-size="41" transform="matrix(1 0 0 1 2371.46 8381)">Weniger als 10</text></g><g clip-path="url(#clip52)"><rect x="2717" y="8358" width="23" height="23" fill="url(#fill53)"/></g><g clip-path="url(#clip54)"><text fill="#44546A" font-family="Calibri,Calibri_MSFontService,sans-serif" font-weight="400" font-size="41" transform="matrix(1 0 0 1 2749.13 8381)">Zwischen 10 und 20</text></g><g clip-path="url(#clip55)"><rect x="3095" y="8358" width="22" height="23" fill="url(#fill56)"/></g><g clip-path="url(#clip57)"><text fill="#44546A" font-family="Calibri,Calibri_MSFontService,sans-serif" font-weight="400" font-size="41" transform="matrix(1 0 0 1 3126.81 8381)">Zwischen 20 und 30</text></g><g clip-path="url(#clip58)"><rect x="2339" y="8435" width="23" height="23" fill="url(#fill59)"/></g><g clip-path="url(#clip60)"><text fill="#44546A" font-family="Calibri,Calibri_MSFontService,sans-serif" font-weight="400" font-size="41" transform="matrix(1 0 0 1 2371.46 8458)">Zwischen 30 und 40</text></g><g clip-path="url(#clip61)"><rect x="2717" y="8435" width="23" height="23" fill="url(#fill62)"/></g><g clip-path="url(#clip63)"><text fill="#44546A" font-family="Calibri,Calibri_MSFontService,sans-serif" font-weight="400" font-size="41" transform="matrix(1 0 0 1 2749.13 8458)">Zwischen 40 und 50</text></g><g clip-path="url(#clip64)"><rect x="3095" y="8435" width="22" height="23" fill="url(#fill65)"/></g><g clip-path="url(#clip66)"><text fill="#44546A" font-family="Calibri,Calibri_MSFontService,sans-serif" font-weight="400" font-size="41" transform="matrix(1 0 0 1 3126.81 8458)">Mehr als 50</text></g></g></svg>