<svg width="1650" height="990" xmlns="http://www.w3.org/2000/svg" xmlns:xlink="http://www.w3.org/1999/xlink" overflow="hidden"><defs><clipPath id="clip0"><rect x="2087" y="6285" width="1650" height="990"/></clipPath><clipPath id="clip1"><rect x="2086" y="6285" width="1650" height="990"/></clipPath><clipPath id="clip2"><rect x="2238" y="6533" width="1071" height="695"/></clipPath><linearGradient x1="2328" y1="6636" x2="2328" y2="7225" gradientUnits="userSpaceOnUse" spreadMethod="reflect" id="fill3"><stop offset="0" stop-color="#6083CB"/><stop offset="0.5" stop-color="#3E70CA"/><stop offset="1" stop-color="#2E61BA"/></linearGradient><clipPath id="clip4"><rect x="2238" y="6533" width="1071" height="695"/></clipPath><linearGradient x1="2439" y1="6774" x2="2439" y2="7225" gradientUnits="userSpaceOnUse" spreadMethod="reflect" id="fill5"><stop offset="0" stop-color="#F18C55"/><stop offset="0.5" stop-color="#F67B28"/><stop offset="1" stop-color="#E56B17"/></linearGradient><clipPath id="clip6"><rect x="2238" y="6533" width="1071" height="695"/></clipPath><linearGradient x1="2550" y1="6990" x2="2550" y2="7225" gradientUnits="userSpaceOnUse" spreadMethod="reflect" id="fill7"><stop offset="0" stop-color="#AFAFAF"/><stop offset="0.5" stop-color="#A5A5A5"/><stop offset="1" stop-color="#929292"/></linearGradient><clipPath id="clip8"><rect x="2238" y="6533" width="1071" height="695"/></clipPath><linearGradient x1="2661" y1="7080" x2="2661" y2="7225" gradientUnits="userSpaceOnUse" spreadMethod="reflect" id="fill9"><stop offset="0" stop-color="#FFC746"/><stop offset="0.5" stop-color="#FFC600"/><stop offset="1" stop-color="#E5B600"/></linearGradient><clipPath id="clip10"><rect x="2238" y="6533" width="1071" height="695"/></clipPath><linearGradient x1="2772" y1="7139" x2="2772" y2="7225" gradientUnits="userSpaceOnUse" spreadMethod="reflect" id="fill11"><stop offset="0" stop-color="#71A6DB"/><stop offset="0.5" stop-color="#559BDB"/><stop offset="1" stop-color="#438AC9"/></linearGradient><clipPath id="clip12"><rect x="2238" y="6533" width="1071" height="695"/></clipPath><linearGradient x1="2883.5" y1="7186" x2="2883.5" y2="7225" gradientUnits="userSpaceOnUse" spreadMethod="reflect" id="fill13"><stop offset="0" stop-color="#81B861"/><stop offset="0.5" stop-color="#6FB242"/><stop offset="1" stop-color="#61A235"/></linearGradient><clipPath id="clip14"><rect x="2238" y="6533" width="1071" height="695"/></clipPath><linearGradient x1="2994.5" y1="7213" x2="2994.5" y2="7225" gradientUnits="userSpaceOnUse" spreadMethod="reflect" id="fill15"><stop offset="0" stop-color="#4F5F89"/><stop offset="0.5" stop-color="#22427D"/><stop offset="1" stop-color="#193971"/></linearGradient><clipPath id="clip16"><rect x="2238" y="6533" width="1071" height="695"/></clipPath><linearGradient x1="3105.5" y1="7218" x2="3105.5" y2="7225" gradientUnits="userSpaceOnUse" spreadMethod="reflect" id="fill17"><stop offset="0" stop-color="#AB6247"/><stop offset="0.5" stop-color="#A54707"/><stop offset="1" stop-color="#983C00"/></linearGradient><clipPath id="clip18"><rect x="2238" y="6533" width="1071" height="695"/></clipPath><linearGradient x1="3217" y1="7224" x2="3217" y2="7225" gradientUnits="userSpaceOnUse" spreadMethod="reflect" id="fill19"><stop offset="0" stop-color="#767676"/><stop offset="0.5" stop-color="#636363"/><stop offset="1" stop-color="#575757"/></linearGradient><clipPath id="clip20"><rect x="2086" y="6285" width="1650" height="990"/></clipPath><clipPath id="clip21"><rect x="2086" y="6285" width="1650" height="990"/></clipPath><clipPath id="clip22"><rect x="2086" y="6285" width="1650" height="990"/></clipPath><clipPath id="clip23"><rect x="2086" y="6285" width="1650" height="990"/></clipPath><clipPath id="clip24"><rect x="2086" y="6285" width="1650" height="990"/></clipPath><clipPath id="clip25"><rect x="2086" y="6285" width="1650" height="990"/></clipPath><clipPath id="clip26"><rect x="2086" y="6285" width="1650" height="990"/></clipPath><clipPath id="clip27"><rect x="2086" y="6285" width="1650" height="990"/></clipPath><clipPath id="clip28"><rect x="2086" y="6285" width="1650" height="990"/></clipPath><clipPath id="clip29"><rect x="2086" y="6285" width="1650" height="990"/></clipPath><clipPath id="clip30"><rect x="2086" y="6285" width="1650" height="990"/></clipPath><clipPath id="clip31"><rect x="2086" y="6285" width="1650" height="990"/></clipPath><clipPath id="clip32"><rect x="2086" y="6285" width="1650" height="990"/></clipPath><clipPath id="clip33"><rect x="2086" y="6285" width="1650" height="990"/></clipPath><clipPath id="clip34"><rect x="2086" y="6285" width="1650" height="990"/></clipPath><clipPath id="clip35"><rect x="2086" y="6285" width="1650" height="990"/></clipPath><clipPath id="clip36"><rect x="2086" y="6285" width="1650" height="990"/></clipPath><clipPath id="clip37"><rect x="2086" y="6285" width="1650" height="990"/></clipPath><clipPath id="clip38"><rect x="2086" y="6285" width="1650" height="990"/></clipPath><clipPath id="clip39"><rect x="2086" y="6285" width="1650" height="990"/></clipPath><clipPath id="clip40"><rect x="2086" y="6285" width="1650" height="990"/></clipPath><clipPath id="clip41"><rect x="2086" y="6285" width="1650" height="990"/></clipPath><clipPath id="clip42"><rect x="2086" y="6285" width="1650" height="990"/></clipPath><clipPath id="clip43"><rect x="2086" y="6285" width="1650" height="990"/></clipPath><clipPath id="clip44"><rect x="2086" y="6285" width="1650" height="990"/></clipPath><clipPath id="clip45"><rect x="2086" y="6285" width="1650" height="990"/></clipPath><clipPath id="clip46"><rect x="2086" y="6285" width="1650" height="990"/></clipPath><clipPath id="clip47"><rect x="2086" y="6285" width="1650" height="990"/></clipPath><clipPath id="clip48"><rect x="2086" y="6285" width="1650" height="990"/></clipPath><clipPath id="clip49"><rect x="2086" y="6285" width="1650" height="990"/></clipPath><clipPath id="clip50"><rect x="2086" y="6285" width="1650" height="990"/></clipPath><clipPath id="clip51"><rect x="2086" y="6285" width="1650" height="990"/></clipPath><clipPath id="clip52"><rect x="2086" y="6285" width="1650" height="990"/></clipPath><clipPath id="clip53"><rect x="2086" y="6285" width="1650" height="990"/></clipPath><clipPath id="clip54"><rect x="2086" y="6285" width="1650" height="990"/></clipPath><linearGradient x1="3389.5" y1="6559" x2="3389.5" y2="6581" gradientUnits="userSpaceOnUse" spreadMethod="reflect" id="fill55"><stop offset="0" stop-color="#6083CB"/><stop offset="0.5" stop-color="#3E70CA"/><stop offset="1" stop-color="#2E61BA"/></linearGradient><clipPath id="clip56"><rect x="2086" y="6285" width="1650" height="990"/></clipPath><clipPath id="clip57"><rect x="2086" y="6285" width="1650" height="990"/></clipPath><linearGradient x1="3389.5" y1="6636" x2="3389.5" y2="6659" gradientUnits="userSpaceOnUse" spreadMethod="reflect" id="fill58"><stop offset="0" stop-color="#F18C55"/><stop offset="0.5" stop-color="#F67B28"/><stop offset="1" stop-color="#E56B17"/></linearGradient><clipPath id="clip59"><rect x="2086" y="6285" width="1650" height="990"/></clipPath><clipPath id="clip60"><rect x="2086" y="6285" width="1650" height="990"/></clipPath><linearGradient x1="3389.5" y1="6713" x2="3389.5" y2="6736" gradientUnits="userSpaceOnUse" spreadMethod="reflect" id="fill61"><stop offset="0" stop-color="#AFAFAF"/><stop offset="0.5" stop-color="#A5A5A5"/><stop offset="1" stop-color="#929292"/></linearGradient><clipPath id="clip62"><rect x="2086" y="6285" width="1650" height="990"/></clipPath><clipPath id="clip63"><rect x="2086" y="6285" width="1650" height="990"/></clipPath><linearGradient x1="3389.5" y1="6791" x2="3389.5" y2="6813" gradientUnits="userSpaceOnUse" spreadMethod="reflect" id="fill64"><stop offset="0" stop-color="#FFC746"/><stop offset="0.5" stop-color="#FFC600"/><stop offset="1" stop-color="#E5B600"/></linearGradient><clipPath id="clip65"><rect x="2086" y="6285" width="1650" height="990"/></clipPath><clipPath id="clip66"><rect x="2086" y="6285" width="1650" height="990"/></clipPath><linearGradient x1="3389.5" y1="6868" x2="3389.5" y2="6891" gradientUnits="userSpaceOnUse" spreadMethod="reflect" id="fill67"><stop offset="0" stop-color="#71A6DB"/><stop offset="0.5" stop-color="#559BDB"/><stop offset="1" stop-color="#438AC9"/></linearGradient><clipPath id="clip68"><rect x="2086" y="6285" width="1650" height="990"/></clipPath><clipPath id="clip69"><rect x="2086" y="6285" width="1650" height="990"/></clipPath><linearGradient x1="3389.5" y1="6945" x2="3389.5" y2="6968" gradientUnits="userSpaceOnUse" spreadMethod="reflect" id="fill70"><stop offset="0" stop-color="#81B861"/><stop offset="0.5" stop-color="#6FB242"/><stop offset="1" stop-color="#61A235"/></linearGradient><clipPath id="clip71"><rect x="2086" y="6285" width="1650" height="990"/></clipPath><clipPath id="clip72"><rect x="2086" y="6285" width="1650" height="990"/></clipPath><linearGradient x1="3389.5" y1="7023" x2="3389.5" y2="7045" gradientUnits="userSpaceOnUse" spreadMethod="reflect" id="fill73"><stop offset="0" stop-color="#4F5F89"/><stop offset="0.5" stop-color="#22427D"/><stop offset="1" stop-color="#193971"/></linearGradient><clipPath id="clip74"><rect x="2086" y="6285" width="1650" height="990"/></clipPath><clipPath id="clip75"><rect x="2086" y="6285" width="1650" height="990"/></clipPath><linearGradient x1="3389.5" y1="7100" x2="3389.5" y2="7123" gradientUnits="userSpaceOnUse" spreadMethod="reflect" id="fill76"><stop offset="0" stop-color="#AB6247"/><stop offset="0.5" stop-color="#A54707"/><stop offset="1" stop-color="#983C00"/></linearGradient><clipPath id="clip77"><rect x="2086" y="6285" width="1650" height="990"/></clipPath><clipPath id="clip78"><rect x="2086" y="6285" width="1650" height="990"/></clipPath><linearGradient x1="3389.5" y1="7177" x2="3389.5" y2="7200" gradientUnits="userSpaceOnUse" spreadMethod="reflect" id="fill79"><stop offset="0" stop-color="#767676"/><stop offset="0.5" stop-color="#636363"/><stop offset="1" stop-color="#575757"/></linearGradient><clipPath id="clip80"><rect x="2086" y="6285" width="1650" height="990"/></clipPath></defs><g clip-path="url(#clip0)" transform="translate(-2087 -6285)"><g clip-path="url(#clip1)"><path d="M2238.5 7225.5 3306.5 7225.5M2238.5 7126.73 3306.5 7126.73M2238.5 7027.73 3306.5 7027.73M2238.5 6928.73 3306.5 6928.73M2238.5 6829.72 3306.5 6829.72M2238.5 6731.72 3306.5 6731.72M2238.5 6632.72 3306.5 6632.72M2238.5 6533.5 3306.5 6533.5" stroke="#E0E5EB" stroke-width="3.4375" stroke-linejoin="round" stroke-miterlimit="10" fill="none"/></g><g clip-path="url(#clip2)"><rect x="2283" y="6636" width="90" height="589" fill="url(#fill3)"/></g><g clip-path="url(#clip4)"><rect x="2394" y="6774" width="90" height="451" fill="url(#fill5)"/></g><g clip-path="url(#clip6)"><rect x="2505" y="6990" width="90" height="235" fill="url(#fill7)"/></g><g clip-path="url(#clip8)"><rect x="2616" y="7080" width="90" height="145" fill="url(#fill9)"/></g><g clip-path="url(#clip10)"><rect x="2727" y="7139" width="90" height="86" fill="url(#fill11)"/></g><g clip-path="url(#clip12)"><rect x="2839" y="7186" width="89" height="39" fill="url(#fill13)"/></g><g clip-path="url(#clip14)"><rect x="2950" y="7213" width="89" height="12" fill="url(#fill15)"/></g><g clip-path="url(#clip16)"><rect x="3061" y="7218" width="89" height="7" fill="url(#fill17)"/></g><g clip-path="url(#clip18)"><rect x="3172" y="7224" width="89.9998" height="1" fill="url(#fill19)"/></g><g clip-path="url(#clip20)"><text fill="#44546A" font-family="Calibri,Calibri_MSFontService,sans-serif" font-weight="400" font-size="41" transform="matrix(1 0 0 1 2266.14 6553)">49,30%</text></g><g clip-path="url(#clip21)"><text fill="#44546A" font-family="Calibri,Calibri_MSFontService,sans-serif" font-weight="400" font-size="41" transform="matrix(1 0 0 1 2286.03 6604)">1194</text></g><g clip-path="url(#clip22)"><text fill="#44546A" font-family="Calibri,Calibri_MSFontService,sans-serif" font-weight="400" font-size="41" transform="matrix(1 0 0 1 2377.25 6692)">37,70%</text></g><g clip-path="url(#clip23)"><text fill="#44546A" font-family="Calibri,Calibri_MSFontService,sans-serif" font-weight="400" font-size="41" transform="matrix(1 0 0 1 2407.59 6743)">913</text></g><g clip-path="url(#clip24)"><text fill="#44546A" font-family="Calibri,Calibri_MSFontService,sans-serif" font-weight="400" font-size="41" transform="matrix(1 0 0 1 2488.36 6907)">19,69%</text></g><g clip-path="url(#clip25)"><text fill="#44546A" font-family="Calibri,Calibri_MSFontService,sans-serif" font-weight="400" font-size="41" transform="matrix(1 0 0 1 2518.7 6958)">477</text></g><g clip-path="url(#clip26)"><text fill="#44546A" font-family="Calibri,Calibri_MSFontService,sans-serif" font-weight="400" font-size="41" transform="matrix(1 0 0 1 2599.47 6998)">12,14%</text></g><g clip-path="url(#clip27)"><text fill="#44546A" font-family="Calibri,Calibri_MSFontService,sans-serif" font-weight="400" font-size="41" transform="matrix(1 0 0 1 2629.82 7049)">294</text></g><g clip-path="url(#clip28)"><text fill="#44546A" font-family="Calibri,Calibri_MSFontService,sans-serif" font-weight="400" font-size="41" transform="matrix(1 0 0 1 2721.04 7056)">7,23%</text></g><g clip-path="url(#clip29)"><text fill="#44546A" font-family="Calibri,Calibri_MSFontService,sans-serif" font-weight="400" font-size="41" transform="matrix(1 0 0 1 2740.93 7107)">175</text></g><g clip-path="url(#clip30)"><text fill="#44546A" font-family="Calibri,Calibri_MSFontService,sans-serif" font-weight="400" font-size="41" transform="matrix(1 0 0 1 2832.15 7103)">3,30%</text></g><g clip-path="url(#clip31)"><text fill="#44546A" font-family="Calibri,Calibri_MSFontService,sans-serif" font-weight="400" font-size="41" transform="matrix(1 0 0 1 2862.49 7154)">80</text></g><g clip-path="url(#clip32)"><text fill="#44546A" font-family="Calibri,Calibri_MSFontService,sans-serif" font-weight="400" font-size="41" transform="matrix(1 0 0 1 2943.26 7130)">1,03%</text></g><g clip-path="url(#clip33)"><text fill="#44546A" font-family="Calibri,Calibri_MSFontService,sans-serif" font-weight="400" font-size="41" transform="matrix(1 0 0 1 2973.61 7181)">25</text></g><g clip-path="url(#clip34)"><text fill="#44546A" font-family="Calibri,Calibri_MSFontService,sans-serif" font-weight="400" font-size="41" transform="matrix(1 0 0 1 3054.38 7136)">0,58%</text></g><g clip-path="url(#clip35)"><text fill="#44546A" font-family="Calibri,Calibri_MSFontService,sans-serif" font-weight="400" font-size="41" transform="matrix(1 0 0 1 3084.72 7187)">14</text></g><g clip-path="url(#clip36)"><text fill="#44546A" font-family="Calibri,Calibri_MSFontService,sans-serif" font-weight="400" font-size="41" transform="matrix(1 0 0 1 3165.49 7142)">0,08%</text></g><g clip-path="url(#clip37)"><text fill="#44546A" font-family="Calibri,Calibri_MSFontService,sans-serif" font-weight="400" font-size="41" transform="matrix(1 0 0 1 3206.28 7193)">2</text></g><g clip-path="url(#clip38)"><text fill="#44546A" font-family="Calibri,Calibri_MSFontService,sans-serif" font-weight="400" font-size="41" transform="matrix(1 0 0 1 2179.05 7237)">0</text></g><g clip-path="url(#clip39)"><text fill="#44546A" font-family="Calibri,Calibri_MSFontService,sans-serif" font-weight="400" font-size="41" transform="matrix(1 0 0 1 2137.25 7138)">200</text></g><g clip-path="url(#clip40)"><text fill="#44546A" font-family="Calibri,Calibri_MSFontService,sans-serif" font-weight="400" font-size="41" transform="matrix(1 0 0 1 2137.25 7039)">400</text></g><g clip-path="url(#clip41)"><text fill="#44546A" font-family="Calibri,Calibri_MSFontService,sans-serif" font-weight="400" font-size="41" transform="matrix(1 0 0 1 2137.25 6940)">600</text></g><g clip-path="url(#clip42)"><text fill="#44546A" font-family="Calibri,Calibri_MSFontService,sans-serif" font-weight="400" font-size="41" transform="matrix(1 0 0 1 2137.25 6842)">800</text></g><g clip-path="url(#clip43)"><text fill="#44546A" font-family="Calibri,Calibri_MSFontService,sans-serif" font-weight="400" font-size="41" transform="matrix(1 0 0 1 2116.35 6743)">1000</text></g><g clip-path="url(#clip44)"><text fill="#44546A" font-family="Calibri,Calibri_MSFontService,sans-serif" font-weight="400" font-size="41" transform="matrix(1 0 0 1 2116.35 6644)">1200</text></g><g clip-path="url(#clip45)"><text fill="#44546A" font-family="Calibri,Calibri_MSFontService,sans-serif" font-weight="400" font-size="41" transform="matrix(1 0 0 1 2116.35 6545)">1400</text></g><g clip-path="url(#clip46)"><text fill="#44546A" font-family="Calibri,Calibri_MSFontService,sans-serif" font-weight="700" font-size="64" transform="matrix(1 0 0 1 2479.39 6381)">THIRD</text></g><g clip-path="url(#clip47)"><text fill="#44546A" font-family="Calibri,Calibri_MSFontService,sans-serif" font-weight="700" font-size="64" transform="matrix(1 0 0 1 2645.28 6381)">-</text></g><g clip-path="url(#clip48)"><text fill="#44546A" font-family="Calibri,Calibri_MSFontService,sans-serif" font-weight="700" font-size="64" transform="matrix(1 0 0 1 2664.92 6381)">PARTY COOKIE</text></g><g clip-path="url(#clip49)"><text fill="#44546A" font-family="Calibri,Calibri_MSFontService,sans-serif" font-weight="700" font-size="64" transform="matrix(1 0 0 1 3052.49 6381)">-</text></g><g clip-path="url(#clip50)"><text fill="#44546A" font-family="Calibri,Calibri_MSFontService,sans-serif" font-weight="700" font-size="64" transform="matrix(1 0 0 1 3072.13 6381)">NUTZUNG</text></g><g clip-path="url(#clip51)"><text fill="#44546A" font-family="Calibri,Calibri_MSFontService,sans-serif" font-weight="700" font-size="64" transform="matrix(1 0 0 1 2683.64 6459)">(</text></g><g clip-path="url(#clip52)"><text fill="#44546A" font-family="Calibri,Calibri_MSFontService,sans-serif" font-weight="700" font-size="64" transform="matrix(1 0 0 1 2703.63 6459)">UNGENEHMIGT</text></g><g clip-path="url(#clip53)"><text fill="#44546A" font-family="Calibri,Calibri_MSFontService,sans-serif" font-weight="700" font-size="64" transform="matrix(1 0 0 1 3119.5 6459)">)</text></g><g clip-path="url(#clip54)"><rect x="3378" y="6559" width="23" height="22" fill="url(#fill55)"/></g><g clip-path="url(#clip56)"><text fill="#44546A" font-family="Calibri,Calibri_MSFontService,sans-serif" font-weight="400" font-size="41" transform="matrix(1 0 0 1 3410.66 6582)">Google Service</text></g><g clip-path="url(#clip57)"><rect x="3378" y="6636" width="23" height="23" fill="url(#fill58)"/></g><g clip-path="url(#clip59)"><text fill="#44546A" font-family="Calibri,Calibri_MSFontService,sans-serif" font-weight="400" font-size="41" transform="matrix(1 0 0 1 3410.66 6659)">Facebook Pixel</text></g><g clip-path="url(#clip60)"><rect x="3378" y="6713" width="23" height="23" fill="url(#fill61)"/></g><g clip-path="url(#clip62)"><text fill="#44546A" font-family="Calibri,Calibri_MSFontService,sans-serif" font-weight="400" font-size="41" transform="matrix(1 0 0 1 3410.66 6736)">Klaviyo</text></g><g clip-path="url(#clip63)"><rect x="3378" y="6791" width="23" height="22" fill="url(#fill64)"/></g><g clip-path="url(#clip65)"><text fill="#44546A" font-family="Calibri,Calibri_MSFontService,sans-serif" font-weight="400" font-size="41" transform="matrix(1 0 0 1 3410.66 6814)">Pinterest Tag</text></g><g clip-path="url(#clip66)"><rect x="3378" y="6868" width="23" height="23" fill="url(#fill67)"/></g><g clip-path="url(#clip68)"><text fill="#44546A" font-family="Calibri,Calibri_MSFontService,sans-serif" font-weight="400" font-size="41" transform="matrix(1 0 0 1 3410.66 6891)">Hotjar</text></g><g clip-path="url(#clip69)"><rect x="3378" y="6945" width="23" height="23" fill="url(#fill70)"/></g><g clip-path="url(#clip71)"><text fill="#44546A" font-family="Calibri,Calibri_MSFontService,sans-serif" font-weight="400" font-size="41" transform="matrix(1 0 0 1 3410.66 6968)">Microsoft Clarity</text></g><g clip-path="url(#clip72)"><rect x="3378" y="7023" width="23" height="22" fill="url(#fill73)"/></g><g clip-path="url(#clip74)"><text fill="#44546A" font-family="Calibri,Calibri_MSFontService,sans-serif" font-weight="400" font-size="41" transform="matrix(1 0 0 1 3410.66 7046)">Hubspot</text></g><g clip-path="url(#clip75)"><rect x="3378" y="7100" width="23" height="22.9995" fill="url(#fill76)"/></g><g clip-path="url(#clip77)"><text fill="#44546A" font-family="Calibri,Calibri_MSFontService,sans-serif" font-weight="400" font-size="41" transform="matrix(1 0 0 1 3410.66 7123)">Lucky Orange</text></g><g clip-path="url(#clip78)"><rect x="3378" y="7177" width="23" height="22.9995" fill="url(#fill79)"/></g><g clip-path="url(#clip80)"><text fill="#44546A" font-family="Calibri,Calibri_MSFontService,sans-serif" font-weight="400" font-size="41" transform="matrix(1 0 0 1 3410.66 7200)">Leadfeeder</text></g></g></svg>