<svg width="1650" height="990" xmlns="http://www.w3.org/2000/svg" xmlns:xlink="http://www.w3.org/1999/xlink" overflow="hidden"><defs><clipPath id="clip0"><rect x="1977" y="8712" width="1650" height="990"/></clipPath><clipPath id="clip1"><rect x="1976" y="8712" width="1650" height="990"/></clipPath><clipPath id="clip2"><rect x="2128" y="8882" width="1451" height="542"/></clipPath><linearGradient x1="2305" y1="8987" x2="2305" y2="9421" gradientUnits="userSpaceOnUse" spreadMethod="reflect" id="fill3"><stop offset="0" stop-color="#6083CB"/><stop offset="0.5" stop-color="#3E70CA"/><stop offset="1" stop-color="#2E61BA"/></linearGradient><clipPath id="clip4"><rect x="2128" y="8882" width="1451" height="542"/></clipPath><linearGradient x1="2523.5" y1="9354" x2="2523.5" y2="9421" gradientUnits="userSpaceOnUse" spreadMethod="reflect" id="fill5"><stop offset="0" stop-color="#F18C55"/><stop offset="0.5" stop-color="#F67B28"/><stop offset="1" stop-color="#E56B17"/></linearGradient><clipPath id="clip6"><rect x="2128" y="8882" width="1451" height="542"/></clipPath><linearGradient x1="2742.5" y1="9400" x2="2742.5" y2="9421" gradientUnits="userSpaceOnUse" spreadMethod="reflect" id="fill7"><stop offset="0" stop-color="#AFAFAF"/><stop offset="0.5" stop-color="#A5A5A5"/><stop offset="1" stop-color="#929292"/></linearGradient><clipPath id="clip8"><rect x="2128" y="8882" width="1451" height="542"/></clipPath><linearGradient x1="2961.5" y1="9420" x2="2961.5" y2="9421" gradientUnits="userSpaceOnUse" spreadMethod="reflect" id="fill9"><stop offset="0" stop-color="#FFC746"/><stop offset="0.5" stop-color="#FFC600"/><stop offset="1" stop-color="#E5B600"/></linearGradient><clipPath id="clip10"><rect x="1976" y="8712" width="1650" height="990"/></clipPath><clipPath id="clip11"><rect x="1976" y="8712" width="1650" height="990"/></clipPath><clipPath id="clip12"><rect x="1976" y="8712" width="1650" height="990"/></clipPath><clipPath id="clip13"><rect x="1976" y="8712" width="1650" height="990"/></clipPath><clipPath id="clip14"><rect x="1976" y="8712" width="1650" height="990"/></clipPath><clipPath id="clip15"><rect x="1976" y="8712" width="1650" height="990"/></clipPath><clipPath id="clip16"><rect x="1976" y="8712" width="1650" height="990"/></clipPath><clipPath id="clip17"><rect x="1976" y="8712" width="1650" height="990"/></clipPath><clipPath id="clip18"><rect x="1976" y="8712" width="1650" height="990"/></clipPath><clipPath id="clip19"><rect x="1976" y="8712" width="1650" height="990"/></clipPath><clipPath id="clip20"><rect x="1976" y="8712" width="1650" height="990"/></clipPath><clipPath id="clip21"><rect x="1976" y="8712" width="1650" height="990"/></clipPath><clipPath id="clip22"><rect x="1976" y="8712" width="1650" height="990"/></clipPath><clipPath id="clip23"><rect x="1976" y="8712" width="1650" height="990"/></clipPath><clipPath id="clip24"><rect x="1976" y="8712" width="1650" height="990"/></clipPath><clipPath id="clip25"><rect x="1976" y="8712" width="1650" height="990"/></clipPath><clipPath id="clip26"><rect x="1976" y="8712" width="1650" height="990"/></clipPath><clipPath id="clip27"><rect x="1976" y="8712" width="1650" height="990"/></clipPath><clipPath id="clip28"><rect x="1976" y="8712" width="1650" height="990"/></clipPath><clipPath id="clip29"><rect x="1976" y="8712" width="1650" height="990"/></clipPath><clipPath id="clip30"><rect x="1976" y="8712" width="1650" height="990"/></clipPath><clipPath id="clip31"><rect x="1976" y="8712" width="1650" height="990"/></clipPath><linearGradient x1="2261" y1="9554" x2="2261" y2="9577" gradientUnits="userSpaceOnUse" spreadMethod="reflect" id="fill32"><stop offset="0" stop-color="#6083CB"/><stop offset="0.5" stop-color="#3E70CA"/><stop offset="1" stop-color="#2E61BA"/></linearGradient><clipPath id="clip33"><rect x="1976" y="8712" width="1650" height="990"/></clipPath><clipPath id="clip34"><rect x="1976" y="8712" width="1650" height="990"/></clipPath><linearGradient x1="2638.5" y1="9554" x2="2638.5" y2="9577" gradientUnits="userSpaceOnUse" spreadMethod="reflect" id="fill35"><stop offset="0" stop-color="#F18C55"/><stop offset="0.5" stop-color="#F67B28"/><stop offset="1" stop-color="#E56B17"/></linearGradient><clipPath id="clip36"><rect x="1976" y="8712" width="1650" height="990"/></clipPath><clipPath id="clip37"><rect x="1976" y="8712" width="1650" height="990"/></clipPath><linearGradient x1="3016.5" y1="9554" x2="3016.5" y2="9577" gradientUnits="userSpaceOnUse" spreadMethod="reflect" id="fill38"><stop offset="0" stop-color="#AFAFAF"/><stop offset="0.5" stop-color="#A5A5A5"/><stop offset="1" stop-color="#929292"/></linearGradient><clipPath id="clip39"><rect x="1976" y="8712" width="1650" height="990"/></clipPath><clipPath id="clip40"><rect x="1976" y="8712" width="1650" height="990"/></clipPath><linearGradient x1="2261" y1="9632" x2="2261" y2="9654" gradientUnits="userSpaceOnUse" spreadMethod="reflect" id="fill41"><stop offset="0" stop-color="#FFC746"/><stop offset="0.5" stop-color="#FFC600"/><stop offset="1" stop-color="#E5B600"/></linearGradient><clipPath id="clip42"><rect x="1976" y="8712" width="1650" height="990"/></clipPath><clipPath id="clip43"><rect x="1976" y="8712" width="1650" height="990"/></clipPath><linearGradient x1="2638.5" y1="9632" x2="2638.5" y2="9654" gradientUnits="userSpaceOnUse" spreadMethod="reflect" id="fill44"><stop offset="0" stop-color="#71A6DB"/><stop offset="0.5" stop-color="#559BDB"/><stop offset="1" stop-color="#438AC9"/></linearGradient><clipPath id="clip45"><rect x="1976" y="8712" width="1650" height="990"/></clipPath><clipPath id="clip46"><rect x="1976" y="8712" width="1650" height="990"/></clipPath><linearGradient x1="3016.5" y1="9632" x2="3016.5" y2="9654" gradientUnits="userSpaceOnUse" spreadMethod="reflect" id="fill47"><stop offset="0" stop-color="#81B861"/><stop offset="0.5" stop-color="#6FB242"/><stop offset="1" stop-color="#61A235"/></linearGradient><clipPath id="clip48"><rect x="1976" y="8712" width="1650" height="990"/></clipPath></defs><g clip-path="url(#clip0)" transform="translate(-1977 -8712)"><g clip-path="url(#clip1)"><path d="M2128.5 9312.81 3576.5 9312.81M2128.5 9205.8 3576.5 9205.8M2128.5 9097.8 3576.5 9097.8M2128.5 8989.79 3576.5 8989.79M2128.5 8882.5 3576.5 8882.5" stroke="#E0E5EB" stroke-width="3.4375" stroke-linejoin="round" stroke-miterlimit="10" fill="none"/></g><g clip-path="url(#clip2)"><rect x="2217" y="8987" width="176" height="434" fill="url(#fill3)"/></g><g clip-path="url(#clip4)"><rect x="2435" y="9354" width="177" height="67" fill="url(#fill5)"/></g><g clip-path="url(#clip6)"><rect x="2654" y="9400" width="177" height="21" fill="url(#fill7)"/></g><g clip-path="url(#clip8)"><rect x="2873" y="9420" width="177" height="1" fill="url(#fill9)"/></g><g clip-path="url(#clip10)"><path d="M2128.5 9420.5 3576.5 9420.5" stroke="#E0E5EB" stroke-width="3.4375" stroke-linejoin="round" stroke-miterlimit="10" fill="none" fill-rule="evenodd"/></g><g clip-path="url(#clip11)"><text fill="#44546A" font-family="Calibri,Calibri_MSFontService,sans-serif" font-weight="400" font-size="41" transform="matrix(1 0 0 1 2243.11 8905)">83,07%</text></g><g clip-path="url(#clip12)"><text fill="#44546A" font-family="Calibri,Calibri_MSFontService,sans-serif" font-weight="400" font-size="41" transform="matrix(1 0 0 1 2263 8956)">2012</text></g><g clip-path="url(#clip13)"><text fill="#44546A" font-family="Calibri,Calibri_MSFontService,sans-serif" font-weight="400" font-size="41" transform="matrix(1 0 0 1 2462.06 9272)">12,80%</text></g><g clip-path="url(#clip14)"><text fill="#44546A" font-family="Calibri,Calibri_MSFontService,sans-serif" font-weight="400" font-size="41" transform="matrix(1 0 0 1 2492.4 9323)">310</text></g><g clip-path="url(#clip15)"><text fill="#44546A" font-family="Calibri,Calibri_MSFontService,sans-serif" font-weight="400" font-size="41" transform="matrix(1 0 0 1 2691.46 9318)">3,96%</text></g><g clip-path="url(#clip16)"><text fill="#44546A" font-family="Calibri,Calibri_MSFontService,sans-serif" font-weight="400" font-size="41" transform="matrix(1 0 0 1 2721.81 9369)">96</text></g><g clip-path="url(#clip17)"><text fill="#44546A" font-family="Calibri,Calibri_MSFontService,sans-serif" font-weight="400" font-size="41" transform="matrix(1 0 0 1 2910.42 9338)">0,17%</text></g><g clip-path="url(#clip18)"><text fill="#44546A" font-family="Calibri,Calibri_MSFontService,sans-serif" font-weight="400" font-size="41" transform="matrix(1 0 0 1 2951.21 9389)">4</text></g><g clip-path="url(#clip19)"><text fill="#44546A" font-family="Calibri,Calibri_MSFontService,sans-serif" font-weight="400" font-size="41" transform="matrix(1 0 0 1 3155.42 9338)">0%</text></g><g clip-path="url(#clip20)"><text fill="#44546A" font-family="Calibri,Calibri_MSFontService,sans-serif" font-weight="400" font-size="41" transform="matrix(1 0 0 1 3170.18 9389)">0</text></g><g clip-path="url(#clip21)"><text fill="#44546A" font-family="Calibri,Calibri_MSFontService,sans-serif" font-weight="400" font-size="41" transform="matrix(1 0 0 1 3374.37 9338)">0%</text></g><g clip-path="url(#clip22)"><text fill="#44546A" font-family="Calibri,Calibri_MSFontService,sans-serif" font-weight="400" font-size="41" transform="matrix(1 0 0 1 3389.13 9389)">0</text></g><g clip-path="url(#clip23)"><text fill="#44546A" font-family="Calibri,Calibri_MSFontService,sans-serif" font-weight="400" font-size="41" transform="matrix(1 0 0 1 2069.05 9432)">0</text></g><g clip-path="url(#clip24)"><text fill="#44546A" font-family="Calibri,Calibri_MSFontService,sans-serif" font-weight="400" font-size="41" transform="matrix(1 0 0 1 2027.25 9325)">500</text></g><g clip-path="url(#clip25)"><text fill="#44546A" font-family="Calibri,Calibri_MSFontService,sans-serif" font-weight="400" font-size="41" transform="matrix(1 0 0 1 2006.35 9217)">1000</text></g><g clip-path="url(#clip26)"><text fill="#44546A" font-family="Calibri,Calibri_MSFontService,sans-serif" font-weight="400" font-size="41" transform="matrix(1 0 0 1 2006.35 9109)">1500</text></g><g clip-path="url(#clip27)"><text fill="#44546A" font-family="Calibri,Calibri_MSFontService,sans-serif" font-weight="400" font-size="41" transform="matrix(1 0 0 1 2006.35 9002)">2000</text></g><g clip-path="url(#clip28)"><text fill="#44546A" font-family="Calibri,Calibri_MSFontService,sans-serif" font-weight="400" font-size="41" transform="matrix(1 0 0 1 2006.35 8894)">2500</text></g><g clip-path="url(#clip29)"><text fill="#44546A" font-family="Calibri,Calibri_MSFontService,sans-serif" font-weight="400" font-size="41" transform="matrix(1 0 0 1 2543.95 9486)">Geladene Cookies (Davor zu Danach)</text></g><g clip-path="url(#clip30)"><text fill="#44546A" font-family="Calibri,Calibri_MSFontService,sans-serif" font-weight="700" font-size="64" transform="matrix(1 0 0 1 2337.3 8808)">ANZAHL DER GELADENEN COOKIES</text></g><g clip-path="url(#clip31)"><rect x="2250" y="9554" width="22" height="23" fill="url(#fill32)"/></g><g clip-path="url(#clip33)"><text fill="#44546A" font-family="Calibri,Calibri_MSFontService,sans-serif" font-weight="400" font-size="41" transform="matrix(1 0 0 1 2282.08 9577)">Weniger als 10</text></g><g clip-path="url(#clip34)"><rect x="2627" y="9554" width="23" height="23" fill="url(#fill35)"/></g><g clip-path="url(#clip36)"><text fill="#44546A" font-family="Calibri,Calibri_MSFontService,sans-serif" font-weight="400" font-size="41" transform="matrix(1 0 0 1 2659.76 9577)">Zwischen 10 und 20</text></g><g clip-path="url(#clip37)"><rect x="3005" y="9554" width="23" height="23" fill="url(#fill38)"/></g><g clip-path="url(#clip39)"><text fill="#44546A" font-family="Calibri,Calibri_MSFontService,sans-serif" font-weight="400" font-size="41" transform="matrix(1 0 0 1 3037.43 9577)">Zwischen 20 und 30</text></g><g clip-path="url(#clip40)"><rect x="2250" y="9632" width="22" height="22" fill="url(#fill41)"/></g><g clip-path="url(#clip42)"><text fill="#44546A" font-family="Calibri,Calibri_MSFontService,sans-serif" font-weight="400" font-size="41" transform="matrix(1 0 0 1 2282.08 9655)">Zwischen 30 und 40</text></g><g clip-path="url(#clip43)"><rect x="2627" y="9632" width="23" height="22" fill="url(#fill44)"/></g><g clip-path="url(#clip45)"><text fill="#44546A" font-family="Calibri,Calibri_MSFontService,sans-serif" font-weight="400" font-size="41" transform="matrix(1 0 0 1 2659.76 9655)">Zwischen 40 und 50</text></g><g clip-path="url(#clip46)"><rect x="3005" y="9632" width="23" height="22" fill="url(#fill47)"/></g><g clip-path="url(#clip48)"><text fill="#44546A" font-family="Calibri,Calibri_MSFontService,sans-serif" font-weight="400" font-size="41" transform="matrix(1 0 0 1 3037.43 9655)">Mehr als 50</text></g></g></svg>