<svg width="1650" height="990" xmlns="http://www.w3.org/2000/svg" xmlns:xlink="http://www.w3.org/1999/xlink" overflow="hidden"><defs><clipPath id="clip0"><rect x="1980" y="9792" width="1650" height="990"/></clipPath><clipPath id="clip1"><rect x="1980" y="9791" width="1650" height="990"/></clipPath><clipPath id="clip2"><rect x="2110" y="10077" width="1473" height="601"/></clipPath><linearGradient x1="2564" y1="10245" x2="2564" y2="10675" gradientUnits="userSpaceOnUse" spreadMethod="reflect" id="fill3"><stop offset="0" stop-color="#6083CB"/><stop offset="0.5" stop-color="#3E70CA"/><stop offset="1" stop-color="#2E61BA"/></linearGradient><clipPath id="clip4"><rect x="2110" y="10077" width="1473" height="601"/></clipPath><linearGradient x1="3126.5" y1="10114" x2="3126.5" y2="10675" gradientUnits="userSpaceOnUse" spreadMethod="reflect" id="fill5"><stop offset="0" stop-color="#F18C55"/><stop offset="0.5" stop-color="#F67B28"/><stop offset="1" stop-color="#E56B17"/></linearGradient><clipPath id="clip6"><rect x="1980" y="9791" width="1650" height="990"/></clipPath><clipPath id="clip7"><rect x="1980" y="9791" width="1650" height="990"/></clipPath><clipPath id="clip8"><rect x="1980" y="9791" width="1650" height="990"/></clipPath><clipPath id="clip9"><rect x="1980" y="9791" width="1650" height="990"/></clipPath><clipPath id="clip10"><rect x="1980" y="9791" width="1650" height="990"/></clipPath><clipPath id="clip11"><rect x="1980" y="9791" width="1650" height="990"/></clipPath><clipPath id="clip12"><rect x="1980" y="9791" width="1650" height="990"/></clipPath><clipPath id="clip13"><rect x="1980" y="9791" width="1650" height="990"/></clipPath><clipPath id="clip14"><rect x="1980" y="9791" width="1650" height="990"/></clipPath><clipPath id="clip15"><rect x="1980" y="9791" width="1650" height="990"/></clipPath><clipPath id="clip16"><rect x="1980" y="9791" width="1650" height="990"/></clipPath><clipPath id="clip17"><rect x="1980" y="9791" width="1650" height="990"/></clipPath><clipPath id="clip18"><rect x="1980" y="9791" width="1650" height="990"/></clipPath><clipPath id="clip19"><rect x="1980" y="9791" width="1650" height="990"/></clipPath><clipPath id="clip20"><rect x="1980" y="9791" width="1650" height="990"/></clipPath><clipPath id="clip21"><rect x="1980" y="9791" width="1650" height="990"/></clipPath><clipPath id="clip22"><rect x="1980" y="9791" width="1650" height="990"/></clipPath><clipPath id="clip23"><rect x="1980" y="9791" width="1650" height="990"/></clipPath><clipPath id="clip24"><rect x="1980" y="9791" width="1650" height="990"/></clipPath><clipPath id="clip25"><rect x="1980" y="9791" width="1650" height="990"/></clipPath><clipPath id="clip26"><rect x="-514" y="9819" width="6638" height="496"/></clipPath><clipPath id="clip27"><rect x="1980" y="9791" width="1650" height="990"/></clipPath><linearGradient x1="2579" y1="9964" x2="2579" y2="9986" gradientUnits="userSpaceOnUse" spreadMethod="reflect" id="fill28"><stop offset="0" stop-color="#6083CB"/><stop offset="0.5" stop-color="#3E70CA"/><stop offset="1" stop-color="#2E61BA"/></linearGradient><clipPath id="clip29"><rect x="1980" y="9791" width="1650" height="990"/></clipPath><clipPath id="clip30"><rect x="1980" y="9791" width="1650" height="990"/></clipPath><linearGradient x1="2850.5" y1="9964" x2="2850.5" y2="9986" gradientUnits="userSpaceOnUse" spreadMethod="reflect" id="fill31"><stop offset="0" stop-color="#F18C55"/><stop offset="0.5" stop-color="#F67B28"/><stop offset="1" stop-color="#E56B17"/></linearGradient><clipPath id="clip32"><rect x="1980" y="9791" width="1650" height="990"/></clipPath></defs><g clip-path="url(#clip0)" transform="translate(-1980 -9792)"><g clip-path="url(#clip1)"><path d="M2110.5 10615.8 3579.5 10615.8M2110.5 10555.8 3579.5 10555.8M2110.5 10495.8 3579.5 10495.8M2110.5 10435.8 3579.5 10435.8M2110.5 10376.8 3579.5 10376.8M2110.5 10316.8 3579.5 10316.8M2110.5 10256.8 3579.5 10256.8M2110.5 10196.8 3579.5 10196.8M2110.5 10137.8 3579.5 10137.8M2110.5 10077.5 3579.5 10077.5" stroke="#E0E5EB" stroke-width="3.4375" stroke-linejoin="round" stroke-miterlimit="10" fill="none"/></g><g clip-path="url(#clip2)"><rect x="2337" y="10245" width="454" height="430" fill="url(#fill3)"/></g><g clip-path="url(#clip4)"><rect x="2900" y="10114" width="453" height="561" fill="url(#fill5)"/></g><g clip-path="url(#clip6)"><path d="M2110.5 10675.5 3579.5 10675.5" stroke="#E0E5EB" stroke-width="3.4375" stroke-linejoin="round" stroke-miterlimit="10" fill="none" fill-rule="evenodd"/></g><g clip-path="url(#clip7)"><text fill="#44546A" font-family="Calibri,Calibri_MSFontService,sans-serif" font-weight="400" font-size="41" transform="matrix(1 0 0 1 2497.37 10213)">72%</text></g><g clip-path="url(#clip8)"><text fill="#44546A" font-family="Calibri,Calibri_MSFontService,sans-serif" font-weight="400" font-size="41" transform="matrix(1 0 0 1 2568.66 10213)">; </text></g><g clip-path="url(#clip9)"><text fill="#44546A" font-family="Calibri,Calibri_MSFontService,sans-serif" font-weight="400" font-size="41" transform="matrix(1 0 0 1 2589.03 10213)">72</text></g><g clip-path="url(#clip10)"><text fill="#44546A" font-family="Calibri,Calibri_MSFontService,sans-serif" font-weight="400" font-size="41" transform="matrix(1 0 0 1 3059.51 10082)">94%</text></g><g clip-path="url(#clip11)"><text fill="#44546A" font-family="Calibri,Calibri_MSFontService,sans-serif" font-weight="400" font-size="41" transform="matrix(1 0 0 1 3130.8 10082)">; </text></g><g clip-path="url(#clip12)"><text fill="#44546A" font-family="Calibri,Calibri_MSFontService,sans-serif" font-weight="400" font-size="41" transform="matrix(1 0 0 1 3151.18 10082)">94</text></g><g clip-path="url(#clip13)"><text fill="#44546A" font-family="Calibri,Calibri_MSFontService,sans-serif" font-weight="400" font-size="41" transform="matrix(1 0 0 1 2051.59 10687)">0</text></g><g clip-path="url(#clip14)"><text fill="#44546A" font-family="Calibri,Calibri_MSFontService,sans-serif" font-weight="400" font-size="41" transform="matrix(1 0 0 1 2030.69 10627)">10</text></g><g clip-path="url(#clip15)"><text fill="#44546A" font-family="Calibri,Calibri_MSFontService,sans-serif" font-weight="400" font-size="41" transform="matrix(1 0 0 1 2030.69 10567)">20</text></g><g clip-path="url(#clip16)"><text fill="#44546A" font-family="Calibri,Calibri_MSFontService,sans-serif" font-weight="400" font-size="41" transform="matrix(1 0 0 1 2030.69 10508)">30</text></g><g clip-path="url(#clip17)"><text fill="#44546A" font-family="Calibri,Calibri_MSFontService,sans-serif" font-weight="400" font-size="41" transform="matrix(1 0 0 1 2030.69 10448)">40</text></g><g clip-path="url(#clip18)"><text fill="#44546A" font-family="Calibri,Calibri_MSFontService,sans-serif" font-weight="400" font-size="41" transform="matrix(1 0 0 1 2030.69 10388)">50</text></g><g clip-path="url(#clip19)"><text fill="#44546A" font-family="Calibri,Calibri_MSFontService,sans-serif" font-weight="400" font-size="41" transform="matrix(1 0 0 1 2030.69 10328)">60</text></g><g clip-path="url(#clip20)"><text fill="#44546A" font-family="Calibri,Calibri_MSFontService,sans-serif" font-weight="400" font-size="41" transform="matrix(1 0 0 1 2030.69 10269)">70</text></g><g clip-path="url(#clip21)"><text fill="#44546A" font-family="Calibri,Calibri_MSFontService,sans-serif" font-weight="400" font-size="41" transform="matrix(1 0 0 1 2030.69 10209)">80</text></g><g clip-path="url(#clip22)"><text fill="#44546A" font-family="Calibri,Calibri_MSFontService,sans-serif" font-weight="400" font-size="41" transform="matrix(1 0 0 1 2030.69 10149)">90</text></g><g clip-path="url(#clip23)"><text fill="#44546A" font-family="Calibri,Calibri_MSFontService,sans-serif" font-weight="400" font-size="41" transform="matrix(1 0 0 1 2009.79 10089)">100</text></g><g clip-path="url(#clip24)"><text fill="#44546A" font-family="Calibri,Calibri_MSFontService,sans-serif" font-weight="400" font-size="41" transform="matrix(1 0 0 1 2533.34 10741)">Erkennungspräzision der Anwendung</text></g><g clip-path="url(#clip25)"><g clip-path="url(#clip26)"><text fill="#44546A" font-family="Calibri,Calibri_MSFontService,sans-serif" font-weight="700" font-size="73" transform="matrix(1 0 0 1 2330.93 9896)">Ermittelte Erkennungspräzision</text></g></g><g clip-path="url(#clip27)"><rect x="2568" y="9964" width="22" height="22" fill="url(#fill28)"/></g><g clip-path="url(#clip29)"><text fill="#44546A" font-family="Calibri,Calibri_MSFontService,sans-serif" font-weight="400" font-size="41" transform="matrix(1 0 0 1 2599.92 9986)">Durchlauf 1</text></g><g clip-path="url(#clip30)"><rect x="2839" y="9964" width="23" height="22" fill="url(#fill31)"/></g><g clip-path="url(#clip32)"><text fill="#44546A" font-family="Calibri,Calibri_MSFontService,sans-serif" font-weight="400" font-size="41" transform="matrix(1 0 0 1 2871.44 9986)">Durchlauf 2</text></g></g></svg>